<svg width="150" height="150" viewBox="0 0 150 150" fill="none" xmlns="http://www.w3.org/2000/svg">
<path d="M11.7189 24.6964H128.906C135.352 24.6964 140.625 29.9698 140.625 36.4152V50.4779C140.625 56.9233 135.352 62.1967 128.906 62.1967H11.7189C5.27341 62.1961 0 56.9227 0 50.4776V36.4149C0 29.9698 5.27341 24.6964 11.7189 24.6964Z" fill="#A86A3F"/>
<path d="M37.3828 37.2353L110.742 17.7823C113.203 17.0792 115.781 18.6026 116.484 21.0636L128.672 66.0636C129.375 68.5246 127.852 71.1026 125.391 71.8057L29.8829 97.2352C27.4219 97.9383 24.8439 96.4148 24.1408 93.9538L15.2344 60.9072L37.3828 37.2353Z" fill="#3DB39E"/>
<path d="M115.898 64.6571L100.078 68.8757C98.7893 69.2274 97.5 68.524 97.2658 67.2351C96.9141 65.9461 97.6175 64.6568 98.9065 64.4227L112.5 60.7899L105.235 33.6025L91.641 37.2353C90.3521 37.587 89.0628 36.8836 88.8286 35.5946C88.4769 34.3056 89.1803 33.0163 90.4693 32.7822L106.29 28.5636C107.578 28.2119 108.868 28.9153 109.102 30.2042L117.539 61.8447C117.891 63.1337 117.187 64.4227 115.898 64.6571ZM50.2734 82.3525L34.4532 86.5711C33.1642 86.9228 31.875 86.2194 31.6408 84.9305L23.2033 53.29C22.8516 52.001 23.555 50.7117 24.8439 50.4776L40.6642 46.2589C41.9532 45.9072 43.2424 46.6106 43.4766 47.8996C43.8283 49.1886 43.1249 50.4779 41.8359 50.712L28.2422 54.3448L35.5077 81.5322L49.1014 77.8994C50.3904 77.5477 51.6797 78.2511 51.9138 79.5401C52.2655 80.7118 51.5624 82.0008 50.2734 82.3525Z" fill="#78CABB"/>
<path d="M0.937599 53.6417C21.7968 41.6883 78.0471 8.75858 78.0471 8.75858C80.2736 7.4696 83.2032 8.17271 84.4925 10.3992L107.93 50.7117C109.219 52.9383 108.399 55.7507 106.172 57.04L20.3906 106.259C18.164 107.548 15.2344 106.844 13.9451 104.618C13.9451 104.618 7.38275 91.2587 0.820068 80.0085C0.820366 53.6417 0.937599 62.3134 0.937599 53.6417Z" fill="#5ABEAC"/>
<path d="M95.9765 49.4228L79.5704 21.0633C78.8673 19.8916 77.4611 19.5399 76.4063 20.243L62.2267 28.446C61.055 29.1491 60.7033 30.5553 61.4064 31.6101C62.1095 32.7819 63.5157 33.1336 64.5705 32.4305L76.758 25.3992L90.8206 49.7742L78.6331 56.8055C77.4614 57.5086 77.1097 58.9148 77.8128 59.9696C78.5159 61.1413 79.9221 61.493 80.9769 60.7899L95.1565 52.5869C96.211 52.001 96.6796 50.5948 95.9765 49.4228ZM33.8673 82.587L21.6798 89.6183L7.61712 65.243L19.8046 58.2117C20.9764 57.5086 21.3281 56.1024 20.625 55.0476C19.9219 53.8758 18.5156 53.5241 17.4608 54.2272L3.28127 62.4303C2.10953 63.1334 1.75783 64.5396 2.46094 65.5944L18.8671 93.9538C19.5702 95.1256 20.9764 95.4773 22.0312 94.7742L36.2107 86.5711C37.3825 85.868 37.7342 84.4618 37.0311 83.407C36.4452 82.3525 35.039 81.8836 33.8673 82.587ZM39.8438 41.2197C30.8204 46.3759 27.7735 57.8603 32.9297 66.8837C38.2031 75.9071 49.5703 78.9539 58.5937 73.7978C67.6171 68.6416 70.6639 57.1572 65.5078 48.1338C60.2343 39.2273 48.8672 36.0635 39.8438 41.2197ZM95.9765 49.4228L79.5704 21.0633C78.8673 19.8916 77.4611 19.5399 76.4063 20.243L62.2267 28.446C61.055 29.1491 60.7033 30.5553 61.4064 31.6101C62.1095 32.7819 63.5157 33.1336 64.5705 32.4305L76.758 25.3992L90.8206 49.7742L78.6331 56.8055C77.4614 57.5086 77.1097 58.9148 77.8128 59.9696C78.5159 61.1413 79.9221 61.493 80.9769 60.7899L95.1565 52.5869C96.211 52.001 96.6796 50.5948 95.9765 49.4228ZM33.8673 82.587L21.6798 89.6183L7.61712 65.243L19.8046 58.2117C20.9764 57.5086 21.3281 56.1024 20.625 55.0476C19.9219 53.8758 18.5156 53.5241 17.4608 54.2272L3.28127 62.4303C2.10953 63.1334 1.75783 64.5396 2.46094 65.5944L18.8671 93.9538C19.5702 95.1256 20.9764 95.4773 22.0312 94.7742L36.2107 86.5711C37.3825 85.868 37.7342 84.4618 37.0311 83.407C36.4452 82.3525 35.039 81.8836 33.8673 82.587ZM39.8438 41.2197C30.8204 46.3759 27.7735 57.8603 32.9297 66.8837C38.2031 75.9071 49.5703 78.9539 58.5937 73.7978C67.6171 68.6416 70.6639 57.1572 65.5078 48.1338C60.2343 39.2273 48.8672 36.0635 39.8438 41.2197Z" fill="#8CD2C5"/>
<path d="M133.594 141.884H11.7189C5.27341 141.884 0 136.61 0 130.165V45.79H133.594C140.039 45.79 145.313 51.0634 145.313 57.5089V130.165C145.312 136.61 140.039 141.884 133.594 141.884ZM9.37509 45.79H0V36.4149C0 41.5711 4.21861 45.79 9.37509 45.79Z" fill="#C47E4D"/>
<path d="M145.312 112.587H126.562C117.539 112.587 110.156 105.204 110.156 96.1807C110.156 87.1573 117.539 79.7746 126.562 79.7746H145.312C147.891 79.7746 150 81.8839 150 84.4621V107.9C150 110.478 147.891 112.587 145.312 112.587Z" fill="#A86A3F"/>
<path d="M126.563 86.8056C131.719 86.8056 135.938 91.0242 135.938 96.1807C135.938 101.337 131.719 105.556 126.563 105.556C121.406 105.556 117.188 101.337 117.188 96.1807C117.188 91.0242 121.406 86.8056 126.563 86.8056Z" fill="#EFC75E"/>
<path d="M128.906 103.212C123.75 103.212 119.531 98.9931 119.531 93.8366C119.531 91.8446 120.117 89.9694 121.172 88.446C118.711 90.0866 117.188 92.8991 117.188 96.1804C117.188 101.337 121.406 105.555 126.563 105.555C129.727 105.555 132.539 103.915 134.297 101.571C132.774 102.626 130.898 103.212 128.906 103.212Z" fill="#D7B354"/>
<path d="M133.594 137.196H11.7189C5.27341 137.196 0 131.923 0 125.477V130.165C0 136.61 5.27341 141.884 11.7189 141.884H133.594C140.039 141.884 145.313 136.61 145.313 130.165V125.477C145.312 131.923 140.039 137.196 133.594 137.196Z" fill="#B27245"/>
<path d="M133.594 45.79H9.37509C4.21861 45.79 0 41.5711 0 36.4149V41.1025C0 46.2587 4.21861 50.4776 9.37509 50.4776H133.594C140.039 50.4776 145.313 55.751 145.313 62.1964V57.5089C145.312 51.0634 140.039 45.79 133.594 45.79Z" fill="#CA8B5F"/>
</svg>
