<?xml version="1.0" encoding="iso-8859-1"?>
<!-- Generator: Adobe Illustrator 19.0.0, SVG Export Plug-In . SVG Version: 6.00 Build 0)  -->
<svg version="1.1" id="Capa_1" xmlns="http://www.w3.org/2000/svg" xmlns:xlink="http://www.w3.org/1999/xlink" x="0px" y="0px"
	 viewBox="0 0 407.569 407.569" style="enable-background:new 0 0 407.569 407.569;" xml:space="preserve">
<path style="fill:#00CEB4;" d="M377.731,39.213H74.71c-17.763,0.522-31.869,14.629-32.914,32.392v9.404H330.71
	c17.241,0.522,30.302,14.629,29.78,31.869v0.522v63.739h1.045l-1.045,60.604v94.041h17.241c16.196,0.522,29.257-12.539,29.78-28.735
	c0-0.522,0-1.045,0-1.567V71.605c1.045-17.241-12.016-31.347-29.257-32.392H377.731z"/>
<path style="fill:#00EFD1;" d="M365.714,170.87v-63.739c0-17.241-11.494-31.347-28.735-31.347H33.959
	C16.718,75.784,0,89.891,0,107.131v229.878c0,17.241,16.718,31.347,33.959,31.347h303.02c17.241,0,28.735-14.106,28.735-31.347
	V170.87L365.714,170.87z"/>
<path style="fill:#00ACEA;" d="M407.51,125.417v94.041l-33.437,43.363c-6.792,8.882-17.241,14.106-28.735,14.106h-57.992
	c-26.122,0-47.02-20.898-47.02-47.02c-0.522-25.6,20.375-46.498,45.976-47.02c0.522,0,0.522,0,1.045,0h57.992
	c5.224,0,10.971-1.045,15.673-3.657c5.224-2.612,9.404-5.747,13.061-10.449L407.51,125.417z"/>
<path style="fill:#224099;" d="M308.245,241.923h-24.033c-5.747,0-10.449-4.702-10.449-10.449c0-5.747,4.702-10.449,10.449-10.449
	h24.033c5.747,0,10.449,4.702,10.449,10.449C318.694,237.221,313.992,241.923,308.245,241.923z"/>
<g>
</g>
<g>
</g>
<g>
</g>
<g>
</g>
<g>
</g>
<g>
</g>
<g>
</g>
<g>
</g>
<g>
</g>
<g>
</g>
<g>
</g>
<g>
</g>
<g>
</g>
<g>
</g>
<g>
</g>
</svg>
